<svg width="29" height="22" viewBox="0 0 29 22" fill="none" xmlns="http://www.w3.org/2000/svg">
<path fill-rule="evenodd" clip-rule="evenodd" d="M27.4287 0.0559692H4.70556C4.05643 0.0559692 3.53022 0.659182 3.53022 1.4033V1.85241H1.57133C0.922207 1.85241 0.396 2.45563 0.396 3.19975V18.4695C0.396 20.2058 1.62383 21.6133 3.13844 21.6133H26.2533C27.5516 21.6133 28.604 20.4069 28.604 18.9186V1.4033C28.604 0.659182 28.0778 0.0559692 27.4287 0.0559692ZM3.13844 18.9186C2.92207 18.9186 2.74667 18.7176 2.74667 18.4695V4.54709H3.53022V18.4695C3.53022 18.7176 3.35482 18.9186 3.13844 18.9186ZM7.25211 18.0204H14.6959C15.0204 18.0204 15.2836 17.7188 15.2836 17.3468V16.8976C15.2836 16.5256 15.0204 16.224 14.6959 16.224H7.25211C6.92757 16.224 6.66444 16.5256 6.66444 16.8976V17.3468C6.66444 17.7188 6.92757 18.0204 7.25211 18.0204ZM24.8821 18.0204H17.4383C17.1138 18.0204 16.8507 17.7188 16.8507 17.3468V16.8976C16.8507 16.5256 17.1138 16.224 17.4383 16.224H24.8821C25.2067 16.224 25.4698 16.5256 25.4698 16.8976V17.3468C25.4698 17.7188 25.2067 18.0204 24.8821 18.0204ZM7.25211 12.6311H14.6959C15.0204 12.6311 15.2836 12.3294 15.2836 11.9574V11.5083C15.2836 11.1363 15.0204 10.8346 14.6959 10.8346H7.25211C6.92757 10.8346 6.66444 11.1363 6.66444 11.5083V11.9574C6.66444 12.3294 6.92757 12.6311 7.25211 12.6311ZM24.8821 12.6311H17.4383C17.1138 12.6311 16.8507 12.3294 16.8507 11.9574V11.5083C16.8507 11.1363 17.1138 10.8346 17.4383 10.8346H24.8821C25.2067 10.8346 25.4698 11.1363 25.4698 11.5083V11.9574C25.4698 12.3294 25.2067 12.6311 24.8821 12.6311ZM7.25211 7.24176H24.8821C25.2067 7.24176 25.4698 6.94012 25.4698 6.56809V4.32253C25.4698 3.9505 25.2067 3.64887 24.8821 3.64887H7.25211C6.92757 3.64887 6.66444 3.9505 6.66444 4.32253V6.56809C6.66444 6.94012 6.92757 7.24176 7.25211 7.24176Z" fill="#F7BF29"/>
</svg>
