<svg width="24" height="28" viewBox="0 0 24 28" fill="none" xmlns="http://www.w3.org/2000/svg">
<path fill-rule="evenodd" clip-rule="evenodd" d="M21.4286 3.5H18.8571V0.65625C18.8571 0.293836 18.5693 0 18.2143 0H16.0714C15.7164 0 15.4286 0.293836 15.4286 0.65625V3.5H8.57143V0.65625C8.57143 0.293836 8.28359 0 7.92857 0H5.78571C5.4307 0 5.14286 0.293836 5.14286 0.65625V3.5H2.57143C1.15125 3.5 0 4.67523 0 6.125V25.375C0 26.8248 1.15125 28 2.57143 28H21.4286C22.8488 28 24 26.8248 24 25.375V6.125C24 4.67523 22.8488 3.5 21.4286 3.5ZM21.1071 25.375H2.89286C2.71534 25.375 2.57143 25.2281 2.57143 25.0469V8.75H21.4286V25.0469C21.4286 25.2281 21.2847 25.375 21.1071 25.375ZM10.6523 22.1221L18.2759 14.402C18.528 14.1467 18.5297 13.7312 18.2796 13.4739L17.0724 12.2315C16.8223 11.9742 16.4153 11.9726 16.1632 12.2278L10.2129 18.2533L7.8502 15.8219C7.60018 15.5645 7.19314 15.5629 6.94109 15.8181L5.724 17.0505C5.47195 17.3058 5.47034 17.7213 5.72036 17.9786L9.74309 22.1184C9.99316 22.3757 10.4002 22.3774 10.6523 22.1221Z" fill="white"/>
</svg>
