<svg width="28" height="26" viewBox="0 0 28 26" fill="none" xmlns="http://www.w3.org/2000/svg">
<path fill-rule="evenodd" clip-rule="evenodd" d="M0 5.89643C0 2.64585 6.26831 0.0116577 14 0.0116577C21.7317 0.0116577 28 2.64585 28 5.89643C28 9.14701 21.7317 11.7812 14 11.7812C6.26831 11.7812 0 9.14701 0 5.89643ZM0 10.3448V14.142C0 16.7413 6.26831 18.8522 14 18.8522C21.7317 18.8522 28 16.7413 28 14.142V10.3448C24.9868 12.8453 19.4732 14.142 14 14.142C8.52675 14.142 3.01317 12.8511 0 10.3448ZM0 18.0673V21.2074C0 23.8067 6.26831 25.9175 14 25.9175C21.7317 25.9175 28 23.8067 28 21.2074V18.0673C24.9868 20.2072 19.4848 21.2074 14 21.2074C8.51523 21.2074 3.01317 20.2072 0 18.0673Z" fill="white"/>
</svg>
