<svg width="26" height="23" viewBox="0 0 26 23" fill="none" xmlns="http://www.w3.org/2000/svg">
<path fill-rule="evenodd" clip-rule="evenodd" d="M19.9172 4.98682C19.337 7.10351 17.6377 8.49725 16.1217 8.10043C14.6056 7.70361 13.8471 5.6659 14.4273 3.54921C15.0074 1.43252 16.7067 0.0382927 18.2228 0.435599C19.7388 0.832904 20.4973 2.87013 19.9172 4.98682ZM11.6852 3.54917C12.2654 5.66587 11.5069 7.70359 9.99084 8.10041C8.47529 8.49771 6.77549 7.10348 6.19534 4.98679C5.61518 2.8701 6.3737 0.832378 7.88974 0.435559C9.40579 0.0387396 11.1051 1.43248 11.6852 3.54917ZM5.8396 9.11351C5.33001 7.42434 3.76006 6.33041 2.3332 6.6697C0.906333 7.009 0.16301 8.65331 0.672605 10.3425C1.1822 12.0316 2.75214 13.1256 4.17901 12.7863C5.60588 12.447 6.3492 10.8027 5.8396 9.11351ZM13.0562 9.72814C9.1652 9.72814 3.64834 15.7126 3.64834 19.4902C3.64834 21.1915 4.96202 22.2079 7.16357 22.2079C8.42607 22.2079 9.46233 21.8677 10.4415 21.5461C11.3184 21.2582 12.1495 20.9853 13.0562 20.9853C13.9751 20.9853 14.8148 21.2607 15.6972 21.5501C16.6738 21.8705 17.7027 22.2079 18.9489 22.2079C21.1505 22.2079 22.4641 21.1915 22.4641 19.4902C22.4641 15.7126 16.9473 9.72814 13.0562 9.72814ZM23.7788 6.67014C22.3519 6.33085 20.7825 7.42478 20.2724 9.11394C19.7628 10.8031 20.5061 12.4474 21.933 12.7867C23.3599 13.126 24.9293 12.0321 25.4394 10.3429C25.949 8.65374 25.2057 7.00943 23.7788 6.67014Z" fill="#F7BF29"/>
</svg>
