<svg width="46" height="32" viewBox="0 0 46 32" fill="none" xmlns="http://www.w3.org/2000/svg">
<g opacity="0.897321" filter="url(#filter0_d)">
<path d="M33.6261 6.51822C33.2498 5.46559 32.3069 4.66397 31.1442 4.45344C30.2437 1.8664 27.69 0 24.6838 0C21.6228 0 19.031 1.93522 18.1769 4.59919C17.6442 4.46964 17.0819 4.40486 16.5069 4.40486C13.4458 4.40486 10.8582 6.32794 10 9H37C36.6829 7.583 35.3722 6.51417 33.7952 6.51417C33.7402 6.51417 33.681 6.51417 33.6261 6.51822Z" fill="white"/>
<path fill-rule="evenodd" clip-rule="evenodd" d="M36.8432 10C37.461 10 38.0125 10.399 38.2157 11.004L41.9185 22.0049C42.2461 22.9789 41.5453 24 40.546 24H5.45399C4.45468 24 3.75392 22.9789 4.08149 22.0049L7.77189 11.004C7.97507 10.399 8.52656 10 9.14439 10H9.66271H36.3912H36.8432ZM29.5412 21.2884C30.8058 21.2884 31.83 20.2372 31.83 18.9286C31.83 18.2378 31.5439 17.62 31.0961 17.1866C31.5481 16.7533 31.8341 16.1354 31.8341 15.4489C31.8341 14.1403 30.81 13.0849 29.5453 13.0849C28.5459 13.0849 27.7001 13.7327 27.3849 14.6766H18.7394C18.4243 13.7327 17.5784 13.0849 16.5791 13.0849C15.3144 13.0849 14.2902 14.136 14.2902 15.4447C14.2902 16.1354 14.5763 16.7533 15.0242 17.1866L14.9246 17.2896C14.5307 17.7144 14.2861 18.2893 14.2861 18.9243C14.2861 20.2329 15.3103 21.2884 16.575 21.2884C17.5743 21.2884 18.4202 20.6405 18.7353 19.6966H27.3808C27.696 20.6405 28.5418 21.2884 29.5412 21.2884Z" fill="white"/>
</g>
<defs>
<filter id="filter0_d" x="0" y="0" width="46" height="32" filterUnits="userSpaceOnUse" color-interpolation-filters="sRGB">
<feFlood flood-opacity="0" result="BackgroundImageFix"/>
<feColorMatrix in="SourceAlpha" type="matrix" values="0 0 0 0 0 0 0 0 0 0 0 0 0 0 0 0 0 0 127 0"/>
<feOffset dy="4"/>
<feGaussianBlur stdDeviation="2"/>
<feColorMatrix type="matrix" values="0 0 0 0 0 0 0 0 0 0 0 0 0 0 0 0 0 0 0.25 0"/>
<feBlend mode="normal" in2="BackgroundImageFix" result="effect1_dropShadow"/>
<feBlend mode="normal" in="SourceGraphic" in2="effect1_dropShadow" result="shape"/>
</filter>
</defs>
</svg>
