<svg width="26" height="23" viewBox="0 0 26 23" fill="none" xmlns="http://www.w3.org/2000/svg">
<path fill-rule="evenodd" clip-rule="evenodd" d="M26 6.82741V1.07812C26 0.482686 25.515 0 24.9167 0H19.14C18.1754 0 17.6936 1.16348 18.3739 1.84049L19.9855 3.44443L8.99307 14.384C8.56998 14.805 8.56998 15.4877 8.99307 15.9087L10.0144 16.9252C10.4375 17.3462 11.1234 17.3462 11.5465 16.9252L22.5388 5.98566L24.1506 7.58978C24.8282 8.26401 26 7.79147 26 6.82741ZM17.6506 12.8833L18.3728 12.1646C19.0553 11.4854 20.2222 11.9664 20.2222 12.9269V20.8438C20.2222 22.0346 19.2522 23 18.0556 23H2.16667C0.970035 23 0 22.0346 0 20.8438V5.03125C0 3.84037 0.970035 2.875 2.16667 2.875H15.5278C16.4929 2.875 16.9762 4.03628 16.2938 4.71549L15.5716 5.43424C15.3684 5.63641 15.0929 5.74998 14.8056 5.75H2.88889V20.125H17.3333V13.6457C17.3333 13.3598 17.4474 13.0855 17.6506 12.8833Z" fill="white"/>
</svg>
