<svg width="13" height="18" viewBox="0 0 13 18" fill="none" xmlns="http://www.w3.org/2000/svg">
<path fill-rule="evenodd" clip-rule="evenodd" d="M3.56483 14.2599C4.20483 15.2068 4.9547 16.3161 5.83199 17.6368C6.15476 18.121 6.84521 18.1211 7.16801 17.6368C8.0453 16.3161 8.79517 15.2068 9.43517 14.2599C12.3836 9.89807 13 8.98616 13 6.75C13 3.02207 10.0899 0 6.5 0C2.91014 0 0 3.02207 0 6.75C0 8.98616 0.616406 9.89807 3.56483 14.2599ZM9.20833 6.75C9.20833 8.30331 7.99578 9.5625 6.5 9.5625C5.00422 9.5625 3.79167 8.30331 3.79167 6.75C3.79167 5.19669 5.00422 3.9375 6.5 3.9375C7.99578 3.9375 9.20833 5.19669 9.20833 6.75Z" fill="#FE9E0C"/>
</svg>
