<svg width="24" height="28" viewBox="0 0 24 28" fill="none" xmlns="http://www.w3.org/2000/svg">
<path fill-rule="evenodd" clip-rule="evenodd" d="M18.816 7.588C18.816 11.3461 15.7648 14.392 12 14.392C8.23525 14.392 5.18403 11.3461 5.18403 7.588C5.18403 3.82985 8.23525 0.783997 12 0.783997C15.7648 0.783997 18.816 3.82985 18.816 7.588ZM15.8819 16.093H16.7712C20.7223 16.093 23.928 19.293 23.928 23.2372V25.4485C23.928 26.8571 22.7831 28 21.372 28H2.628C1.21687 28 0.0719986 26.8571 0.0719986 25.4485V23.2372C0.0719986 19.293 3.27765 16.093 7.2288 16.093H8.11807C9.30555 16.6352 10.6155 16.9435 12 16.9435C13.3845 16.9435 14.6998 16.6352 15.8819 16.093Z" fill="#F7BF29"/>
</svg>
