<svg width="43" height="41" viewBox="0 0 43 41" fill="none" xmlns="http://www.w3.org/2000/svg">
<g filter="url(#filter0_d)">
<path fill-rule="evenodd" clip-rule="evenodd" d="M31.0719 6.97903C30.2626 10.1773 27.8919 12.2832 25.7769 11.6837C23.6618 11.0841 22.6036 8.0051 23.413 4.8068C24.2224 1.60851 26.5931 -0.498156 28.7081 0.102169C30.8231 0.702495 31.8813 3.78073 31.0719 6.97903ZM19.5877 4.8068C20.397 8.0051 19.3388 11.0841 17.2238 11.6837C15.1095 12.284 12.7381 10.1773 11.9288 6.97902C11.1194 3.78073 12.1776 0.701758 14.2926 0.102169C16.4076 -0.49742 18.7783 1.60851 19.5877 4.8068ZM11.4325 13.2143C10.7216 10.662 8.53134 9.00908 6.54073 9.52175C4.55013 10.0344 3.51313 12.519 4.22406 15.0713C4.93499 17.6236 7.1252 19.2765 9.1158 18.7638C11.1064 18.2511 12.1434 15.7666 11.4325 13.2143ZM21.5003 14.1431C16.072 14.1431 8.37548 23.1856 8.37548 28.8935C8.37548 31.4642 10.2082 33 13.2795 33C15.0408 33 16.4865 32.4859 17.8525 32L17.8525 32C19.0759 31.565 20.2353 31.1526 21.5003 31.1526C22.7822 31.1526 23.9537 31.5688 25.1847 32.0061C26.5472 32.4901 27.9826 33 29.7212 33C32.7925 33 34.6252 31.4642 34.6252 28.8935C34.6252 23.1856 26.9287 14.1431 21.5003 14.1431ZM36.4593 9.52248C34.4687 9.00981 32.2791 10.6627 31.5675 13.215C30.8566 15.7673 31.8936 18.2519 33.8842 18.7646C35.8748 19.2772 38.0643 17.6243 38.7759 15.072C39.4869 12.5197 38.4499 10.0352 36.4593 9.52248Z" fill="white"/>
</g>
<defs>
<filter id="filter0_d" x="0" y="0" width="43" height="41" filterUnits="userSpaceOnUse" color-interpolation-filters="sRGB">
<feFlood flood-opacity="0" result="BackgroundImageFix"/>
<feColorMatrix in="SourceAlpha" type="matrix" values="0 0 0 0 0 0 0 0 0 0 0 0 0 0 0 0 0 0 127 0"/>
<feOffset dy="4"/>
<feGaussianBlur stdDeviation="2"/>
<feColorMatrix type="matrix" values="0 0 0 0 0 0 0 0 0 0 0 0 0 0 0 0 0 0 0.25 0"/>
<feBlend mode="normal" in2="BackgroundImageFix" result="effect1_dropShadow"/>
<feBlend mode="normal" in="SourceGraphic" in2="effect1_dropShadow" result="shape"/>
</filter>
</defs>
</svg>
